HIERARCHY
ROOT RootJoint
{
    OFFSET   0.000000   0.000000   0.000000
    CHANNELS 6 Xposition Yposition Zposition Xrotation Yrotation Zrotation
    JOINT lHip
    {
        OFFSET   0.100000  -0.051395   0.000000
        CHANNELS 3 Xrotation Yrotation Zrotation
        JOINT lKnee
        {
            OFFSET   0.000000  -0.410000   0.000000
            CHANNELS 3 Xrotation Yrotation Zrotation
            JOINT lAnkle
            {
                OFFSET   0.000000  -0.390000   0.000000
                CHANNELS 3 Xrotation Yrotation Zrotation
                JOINT lToeJoint
                {
                    OFFSET   0.000000  -0.050000   0.130000
                    CHANNELS 3 Xrotation Yrotation Zrotation
                    End Site
                    {
                        OFFSET   0.010000   0.002000   0.060000
                    }
                }
            }
        }
    }
    JOINT rHip
    {
        OFFSET  -0.100000  -0.051395   0.000000
        CHANNELS 3 Xrotation Yrotation Zrotation
        JOINT rKnee
        {
            OFFSET   0.000000  -0.410000   0.000000
            CHANNELS 3 Xrotation Yrotation Zrotation
            JOINT rAnkle
            {
                OFFSET   0.000000  -0.390000   0.000000
                CHANNELS 3 Xrotation Yrotation Zrotation
                JOINT rToeJoint
                {
                    OFFSET   0.000000  -0.050000   0.130000
                    CHANNELS 3 Xrotation Yrotation Zrotation
                    End Site
                    {
                        OFFSET  -0.010000   0.002000   0.060000
                    }
                }
            }
        }
    }
    JOINT pelvis_lowerback
    {
        OFFSET   0.000000   0.093605   0.000000
        CHANNELS 3 Xrotation Yrotation Zrotation
        JOINT lowerback_torso
        {
            OFFSET   0.000000   0.100000   0.000000
            CHANNELS 3 Xrotation Yrotation Zrotation
            JOINT torso_head
            {
                OFFSET   0.000000   0.282350   0.000000
                CHANNELS 3 Xrotation Yrotation Zrotation
                End Site
                {
                    OFFSET   0.000000   0.192650   0.000000
                }
            }
            JOINT lTorso_Clavicle
            {
                OFFSET   0.001000   0.157500   0.000000
                CHANNELS 3 Xrotation Yrotation Zrotation
                JOINT lShoulder
                {
                    OFFSET   0.117647   0.000000   0.000000
                    CHANNELS 3 Xrotation Yrotation Zrotation
                    JOINT lElbow
                    {
                        OFFSET   0.245000   0.000000   0.000000
                        CHANNELS 3 Xrotation Yrotation Zrotation
                        JOINT lWrist
                        {
                            OFFSET   0.240000   0.000000   0.000000
                            CHANNELS 3 Xrotation Yrotation Zrotation
                            End Site
                            {
                                OFFSET   0.116353  -0.002500   0.000000
                            }
                        }
                    }
                }
            }
            JOINT rTorso_Clavicle
            {
                OFFSET  -0.001000   0.157500   0.000000
                CHANNELS 3 Xrotation Yrotation Zrotation
                JOINT rShoulder
                {
                    OFFSET  -0.117647   0.000000   0.000000
                    CHANNELS 3 Xrotation Yrotation Zrotation
                    JOINT rElbow
                    {
                        OFFSET  -0.245000   0.000000   0.000000
                        CHANNELS 3 Xrotation Yrotation Zrotation
                        JOINT rWrist
                        {
                            OFFSET  -0.240000   0.000000   0.000000
                            CHANNELS 3 Xrotation Yrotation Zrotation
                            End Site
                            {
                                OFFSET  -0.116353  -0.002500   0.000000
                            }
                        }
                    }
                }
            }
        }
    }
}
MOTION
Frames: 5
Frame Time:   0.016667
 -1.139057   0.859290   2.931393  20.616708  77.036158 -26.160128  -7.664912  -1.626146 -16.051948  21.074991  -1.712648   7.978812 -12.326697  -5.345902  18.845449   0.000000   0.000003   0.000000 -24.321807   1.286139  -6.706269  45.658558   0.723980  -8.757395   3.448508  -0.129284   9.124376   0.000003   0.000003  -0.000001   1.293501  -1.891562   1.823804   5.533426  -7.497352   7.392937   8.311208  16.948398 -10.761971   0.032591  -2.463533 -16.696525  19.457728 -31.688694 -55.241963   0.352939 -17.711817   3.509276  -7.275289   1.564945  -0.697137  -0.869448  -3.445700  18.848145  22.493380  19.112697  42.250037  -1.038044  29.578210  -4.794501   1.366301   6.272168  -8.726496
 -1.130445   0.860299   2.940051  30.630279  80.908164 -36.051107  -6.873893  -3.434230 -15.440959  21.477495  -3.022679   7.652254 -12.360504  -6.240703  18.802552   0.000000   0.000003  -0.000001 -24.232858   2.178792  -6.334343  42.159085   1.409993  -8.841436   2.013761   0.064639   9.400180   0.000005   0.000003  -0.000003   1.347749  -1.910143   1.758355   5.743773  -7.561820   7.143554   7.430191  14.919370  -9.561494   0.027570  -2.603756 -16.595208  19.249028 -31.721062 -54.495087   0.357561 -17.739742   3.655849  -6.806341   1.694667  -1.029368  -0.871941  -3.474169  18.984201  22.611837  19.052683  42.541843  -0.999897  28.931366  -4.756437   1.169337   5.892777  -8.134873
 -1.121634   0.861170   2.948451  52.333806  84.114282 -57.643873  -6.089574  -5.285559 -14.824022  21.920630  -4.226981   7.331416 -12.410149  -7.071606  18.769456  -0.000000   0.000003  -0.000001 -24.121530   3.134839  -5.953459  38.692953   2.192045  -8.791815   0.519399   0.324438   9.689782   0.000006   0.000003  -0.000004   1.408926  -1.919175   1.694947   5.980053  -7.587385   6.903482   6.619334  12.919398  -8.437314   0.023067  -2.738320 -16.493073  19.016402 -31.697919 -53.756950   0.363992 -17.839110   3.810947  -6.380908   1.800008  -1.315976  -0.875819  -3.476848  19.111641  22.792143  19.050241  42.784720  -0.962719  28.284394  -4.707178   0.990367   5.498841  -7.481459
 -1.111729   0.861276   2.955424  92.146210  85.469128 -97.407371  -5.436568  -7.415428 -14.293239  22.620646  -4.840697   7.001690 -12.543134  -7.551235  18.792729  -0.000002   0.000007  -0.000001 -23.863455   4.437850  -5.520628  35.401767   3.462333  -8.177663  -1.300522   0.975519  10.042990   0.000001   0.000002  -0.000001   1.508338  -1.875429   1.642634   6.360522  -7.395100   6.712895   5.951222  11.159870  -7.531043   0.020257  -2.841716 -16.386436  18.647971 -31.359900 -53.067496   0.381060 -18.331442   4.013221  -6.198755   1.785025  -1.346165  -0.887775  -3.337660  19.191695  23.311852  19.361404  42.756598  -0.931452  27.636635  -4.597799   0.894407   5.034076  -6.480425
 -1.101529   0.861174   2.961838 130.991568  84.229627 -136.237546  -4.798313  -9.546981 -13.755434  23.395576  -5.316406   6.690883 -12.692799  -7.947430  18.835296  -0.000003   0.000009  -0.000001 -23.585773   5.819386  -5.076958  32.158283   4.848565  -7.354048  -3.123792   1.713768  10.576215  -0.000004   0.000000   0.000001   1.615404  -1.819111   1.599353   6.770909  -7.151590   6.558266   5.362437   9.507777  -6.730811   0.018431  -2.923567 -16.286734  18.282415 -30.962439 -52.388712   0.403516 -18.966191   4.247908  -6.109568   1.730331  -1.304417  -0.901829  -3.156791  19.244487  23.932561  19.762862  42.645679  -0.902454  27.022260  -4.478126   0.864575   4.550387  -5.386341
